<?xml version="1.0" encoding="utf-8"?>
<svg version="1.1" xmlns:xlink="http://www.w3.org/1999/xlink" width="12px" height="12px" xmlns="http://www.w3.org/2000/svg">
  <g transform="matrix(1 0 0 1 -20 -9 )">
    <path d="M 8.267578125 0  C 9.275390625 0  10.216796875 0.363116511794125  11.091796875 1.08934953538242  L 12 12  C 11.48828125 12  10.986328125 11.8370264474625  10.494140625 11.5110793423874  C 9.712890625 10.9907076483202  8.9453125 10.7305218012866  8.19140625 10.7305218012866  C 7.30859375 10.7305218012866  6.578125 11.1536812008578  6 12  C 5.421875 11.1536812008578  4.69140625 10.7305218012866  3.80859375 10.7305218012866  C 3.0546875 10.7305218012866  2.287109375 10.9907076483202  1.505859375 11.5110793423874  C 1.005859375 11.8370264474625  0.513671874999999 12  0.029296875 12  L 0 12  L 0.908203125 1.08934953538242  C 1.783203125 0.363116511794125  2.724609375 0  3.732421875 0  C 4.642578125 0  5.3984375 0.303073624017154  6 0.909220872051468  C 6.6015625 0.303073624017154  7.357421875 0  8.267578125 0  Z M 6 10.481772694782  C 6.671875 9.86418870621873  7.40234375 9.5553967119371  8.19140625 9.5553967119371  C 8.6953125 9.5553967119371  9.1484375 9.63688348820587  9.55078125 9.79985704074338  C 9.953125 9.96283059328093  10.4609375 10.2301644031451  11.07421875 10.601858470336  L 10.34765625 1.84417441029307  C 9.6796875 1.39814152966405  8.9609375 1.17512508934954  8.19140625 1.17512508934954  C 7.31640625 1.17512508934954  6.5859375 1.578270192995  6 2.38456040028592  C 5.4140625 1.578270192995  4.68359375 1.17512508934954  3.80859375 1.17512508934954  C 3.0390625 1.17512508934954  2.3203125 1.39814152966405  1.65234375 1.84417441029307  L 0.92578125 10.601858470336  C 1.3359375 10.3559685489635  1.6591796875 10.1701215153681  1.8955078125 10.0443173695497  C 2.1318359375 9.91851322373124  2.421875 9.80557541100786  2.765625 9.70550393137957  C 3.109375 9.60543245175126  3.45703125 9.5553967119371  3.80859375 9.5553967119371  C 4.59765625 9.5553967119371  5.328125 9.86418870621873  6 10.481772694782  Z M 5.78999999999996 6.12  C 5.78999999999996 6.15  5.78999999999996 6.12  5.78999999999996 6.12  C 5.78999999999996 6.12  5.78999999999996 6.09  5.78999999999996 6.12  Z " fill-rule="nonzero" fill="#ffffff" stroke="none" transform="matrix(1 0 0 1 20 9 )" />
  </g>
</svg>