<?xml version="1.0" encoding="utf-8"?>
<svg version="1.1" xmlns:xlink="http://www.w3.org/1999/xlink" width="20px" height="20px" xmlns="http://www.w3.org/2000/svg">
  <g transform="matrix(1 0 0 1 -418 0 )">
    <path d="M 428 1  C 433.04 1  437 4.96  437 10  C 437 15.04  433.04 19  428 19  C 422.96 19  419 15.04  419 10  C 419 4.96  422.96 1  428 1  Z " fill-rule="nonzero" fill="#ffffff" stroke="none" fill-opacity="0" />
    <path d="M 428 1  C 433.04 1  437 4.96  437 10  C 437 15.04  433.04 19  428 19  C 422.96 19  419 15.04  419 10  C 419 4.96  422.96 1  428 1  Z " stroke-width="2" stroke="#ffffff" fill="none" />
  </g>
</svg>